<svg width="111" height="60" viewBox="0 0 111 60" fill="none" xmlns="http://www.w3.org/2000/svg">
<rect x="0.5" y="5.5" width="105" height="49" rx="24.5" fill="#2B2B2B"/>
<rect x="0.5" y="5.5" width="105" height="49" rx="24.5" stroke="#2B2B2B"/>
<g clip-path="url(#clip0_102_122)">
<path d="M23.875 21.375V19.875C23.875 19.5766 23.9935 19.2905 24.2045 19.0795C24.4155 18.8685 24.7016 18.75 25 18.75C25.2984 18.75 25.5845 18.8685 25.7955 19.0795C26.0065 19.2905 26.125 19.5766 26.125 19.875V21.375C26.125 21.6734 26.0065 21.9595 25.7955 22.1705C25.5845 22.3815 25.2984 22.5 25 22.5C24.7016 22.5 24.4155 22.3815 24.2045 22.1705C23.9935 21.9595 23.875 21.6734 23.875 21.375ZM31.375 30C31.375 31.2609 31.0011 32.4934 30.3006 33.5418C29.6001 34.5901 28.6045 35.4072 27.4396 35.8897C26.2747 36.3722 24.9929 36.4985 23.7563 36.2525C22.5197 36.0065 21.3838 35.3994 20.4922 34.5078C19.6006 33.6162 18.9935 32.4803 18.7475 31.2437C18.5015 30.0071 18.6278 28.7253 19.1103 27.5604C19.5928 26.3955 20.4099 25.3999 21.4582 24.6994C22.5066 23.9989 23.7391 23.625 25 23.625C26.6902 23.6267 28.3107 24.2989 29.5059 25.4941C30.7011 26.6893 31.3733 28.3098 31.375 30ZM29.125 30C29.125 29.1842 28.8831 28.3866 28.4298 27.7083C27.9766 27.0299 27.3323 26.5012 26.5786 26.189C25.8248 25.8768 24.9954 25.7951 24.1953 25.9543C23.3951 26.1134 22.6601 26.5063 22.0832 27.0832C21.5063 27.6601 21.1134 28.3951 20.9543 29.1953C20.7951 29.9954 20.8768 30.8248 21.189 31.5786C21.5012 32.3323 22.0299 32.9766 22.7083 33.4298C23.3866 33.8831 24.1842 34.125 25 34.125C26.0936 34.1238 27.1421 33.6888 27.9154 32.9154C28.6888 32.1421 29.1238 31.0936 29.125 30ZM17.8291 24.4209C17.9337 24.5256 18.0579 24.6086 18.1947 24.6652C18.3314 24.7219 18.4779 24.751 18.6259 24.751C18.7739 24.751 18.9205 24.7219 19.0572 24.6652C19.1939 24.6086 19.3182 24.5256 19.4228 24.4209C19.5275 24.3163 19.6105 24.1921 19.6671 24.0553C19.7237 23.9186 19.7529 23.7721 19.7529 23.6241C19.7529 23.4761 19.7237 23.3295 19.6671 23.1928C19.6105 23.0561 19.5275 22.9318 19.4228 22.8272L18.2978 21.7022C18.0865 21.4908 17.7998 21.3721 17.5009 21.3721C17.2021 21.3721 16.9154 21.4908 16.7041 21.7022C16.4927 21.9135 16.374 22.2002 16.374 22.4991C16.374 22.7979 16.4927 23.0846 16.7041 23.2959L17.8291 24.4209ZM17.8291 35.5772L16.7041 36.7022C16.5994 36.8068 16.5164 36.9311 16.4598 37.0678C16.4031 37.2045 16.374 37.3511 16.374 37.4991C16.374 37.6471 16.4031 37.7936 16.4598 37.9303C16.5164 38.0671 16.5994 38.1913 16.7041 38.2959C16.9154 38.5073 17.2021 38.626 17.5009 38.626C17.6489 38.626 17.7955 38.5969 17.9322 38.5402C18.0689 38.4836 18.1932 38.4006 18.2978 38.2959L19.4228 37.1709C19.6342 36.9596 19.7529 36.6729 19.7529 36.3741C19.7529 36.0752 19.6342 35.7885 19.4228 35.5772C19.2115 35.3658 18.9248 35.2471 18.6259 35.2471C18.3271 35.2471 18.0404 35.3658 17.8291 35.5772ZM31.375 24.75C31.5228 24.7501 31.6691 24.7211 31.8057 24.6647C31.9423 24.6082 32.0664 24.5254 32.1709 24.4209L33.2959 23.2959C33.4006 23.1913 33.4836 23.0671 33.5402 22.9303C33.5969 22.7936 33.626 22.6471 33.626 22.4991C33.626 22.3511 33.5969 22.2045 33.5402 22.0678C33.4836 21.9311 33.4006 21.8068 33.2959 21.7022C33.1913 21.5975 33.0671 21.5145 32.9303 21.4579C32.7936 21.4013 32.6471 21.3721 32.4991 21.3721C32.3511 21.3721 32.2045 21.4013 32.0678 21.4579C31.9311 21.5145 31.8068 21.5975 31.7022 21.7022L30.5772 22.8272C30.4189 22.9845 30.311 23.1854 30.2672 23.4042C30.2234 23.6231 30.2457 23.85 30.3312 24.0562C30.4168 24.2623 30.5617 24.4383 30.7475 24.5619C30.9334 24.6854 31.1518 24.7509 31.375 24.75ZM32.1709 35.5791C31.9596 35.3677 31.6729 35.249 31.3741 35.249C31.0752 35.249 30.7885 35.3677 30.5772 35.5791C30.3658 35.7904 30.2471 36.0771 30.2471 36.3759C30.2471 36.6748 30.3658 36.9615 30.5772 37.1728L31.7022 38.2978C31.9135 38.5092 32.2002 38.6279 32.4991 38.6279C32.7979 38.6279 33.0846 38.5092 33.2959 38.2978C33.5073 38.0865 33.626 37.7998 33.626 37.5009C33.626 37.2021 33.5073 36.9154 33.2959 36.7041L32.1709 35.5791ZM17.5 30C17.5 29.7016 17.3815 29.4155 17.1705 29.2045C16.9595 28.9935 16.6734 28.875 16.375 28.875H14.875C14.5766 28.875 14.2905 28.9935 14.0795 29.2045C13.8685 29.4155 13.75 29.7016 13.75 30C13.75 30.2984 13.8685 30.5845 14.0795 30.7955C14.2905 31.0065 14.5766 31.125 14.875 31.125H16.375C16.6734 31.125 16.9595 31.0065 17.1705 30.7955C17.3815 30.5845 17.5 30.2984 17.5 30ZM25 37.5C24.7016 37.5 24.4155 37.6185 24.2045 37.8295C23.9935 38.0405 23.875 38.3266 23.875 38.625V40.125C23.875 40.4234 23.9935 40.7095 24.2045 40.9205C24.4155 41.1315 24.7016 41.25 25 41.25C25.2984 41.25 25.5845 41.1315 25.7955 40.9205C26.0065 40.7095 26.125 40.4234 26.125 40.125V38.625C26.125 38.3266 26.0065 38.0405 25.7955 37.8295C25.5845 37.6185 25.2984 37.5 25 37.5ZM35.125 28.875H33.625C33.3266 28.875 33.0405 28.9935 32.8295 29.2045C32.6185 29.4155 32.5 29.7016 32.5 30C32.5 30.2984 32.6185 30.5845 32.8295 30.7955C33.0405 31.0065 33.3266 31.125 33.625 31.125H35.125C35.4234 31.125 35.7095 31.0065 35.9205 30.7955C36.1315 30.5845 36.25 30.2984 36.25 30C36.25 29.7016 36.1315 29.4155 35.9205 29.2045C35.7095 28.9935 35.4234 28.875 35.125 28.875Z" fill="url(#paint0_linear_102_122)"/>
</g>
<g filter="url(#filter0_dii_102_122)">
<rect x="57" y="6" width="48" height="48" rx="24" fill="#2E2E2E"/>
<path d="M91.1599 31.0689C91.0156 30.9243 90.8346 30.8217 90.6364 30.7721C90.4383 30.7226 90.2303 30.7279 90.0349 30.7876C88.67 31.1997 87.2189 31.2338 85.8362 30.8863C84.4535 30.5388 83.1909 29.8228 82.1829 28.8144C81.175 27.8061 80.4594 26.5432 80.1125 25.1604C79.7655 23.7775 79.8002 22.3264 80.2127 20.9617C80.2729 20.7662 80.2787 20.558 80.2294 20.3595C80.1801 20.161 80.0777 19.9797 79.933 19.8351C79.7884 19.6905 79.6071 19.588 79.4086 19.5388C79.2101 19.4895 79.0019 19.4952 78.8065 19.5554C76.7537 20.1864 74.9523 21.4488 73.6587 23.1629C72.5274 24.6666 71.8375 26.4557 71.6664 28.3296C71.4954 30.2035 71.8499 32.088 72.6902 33.7717C73.5305 35.4553 74.8234 36.8715 76.4237 37.8612C78.024 38.851 79.8685 39.3753 81.7502 39.3751C83.9471 39.3815 86.0855 38.6672 87.8374 37.3417C89.5507 36.0467 90.8118 34.2443 91.4412 32.1911C91.5003 31.9961 91.5054 31.7887 91.4558 31.591C91.4063 31.3934 91.304 31.2129 91.1599 31.0689ZM86.4837 35.5445C84.9673 36.6861 83.0896 37.2415 81.1962 37.1087C79.3028 36.9758 77.521 36.1636 76.1789 34.8215C74.8368 33.4793 74.0245 31.6976 73.8917 29.8042C73.7588 27.9108 74.3143 26.0331 75.4559 24.5167C76.0565 23.7221 76.8009 23.0473 77.6505 22.5273C77.6337 22.7673 77.6252 23.0082 77.6252 23.2501C77.6282 25.9345 78.6959 28.5081 80.5941 30.4063C82.4922 32.3044 85.0658 33.3721 87.7502 33.3751C87.9921 33.3751 88.233 33.3667 88.473 33.3498C87.9533 34.1995 87.2784 34.944 86.4837 35.5445Z" fill="url(#paint1_linear_102_122)"/>
</g>
<defs>
<filter id="filter0_dii_102_122" x="51" y="0" width="60" height="60" filterUnits="userSpaceOnUse" color-interpolation-filters="sRGB">
<feFlood flood-opacity="0" result="BackgroundImageFix"/>
<feColorMatrix in="SourceAlpha" type="matrix" values="0 0 0 0 0 0 0 0 0 0 0 0 0 0 0 0 0 0 127 0" result="hardAlpha"/>
<feOffset/>
<feGaussianBlur stdDeviation="3"/>
<feComposite in2="hardAlpha" operator="out"/>
<feColorMatrix type="matrix" values="0 0 0 0 0 0 0 0 0 0 0 0 0 0 0 0 0 0 1 0"/>
<feBlend mode="normal" in2="BackgroundImageFix" result="effect1_dropShadow_102_122"/>
<feBlend mode="normal" in="SourceGraphic" in2="effect1_dropShadow_102_122" result="shape"/>
<feColorMatrix in="SourceAlpha" type="matrix" values="0 0 0 0 0 0 0 0 0 0 0 0 0 0 0 0 0 0 127 0" result="hardAlpha"/>
<feOffset dx="0.5" dy="0.5"/>
<feComposite in2="hardAlpha" operator="arithmetic" k2="-1" k3="1"/>
<feColorMatrix type="matrix" values="0 0 0 0 1 0 0 0 0 1 0 0 0 0 1 0 0 0 0.4 0"/>
<feBlend mode="normal" in2="shape" result="effect2_innerShadow_102_122"/>
<feColorMatrix in="SourceAlpha" type="matrix" values="0 0 0 0 0 0 0 0 0 0 0 0 0 0 0 0 0 0 127 0" result="hardAlpha"/>
<feOffset dx="-0.5" dy="-0.5"/>
<feComposite in2="hardAlpha" operator="arithmetic" k2="-1" k3="1"/>
<feColorMatrix type="matrix" values="0 0 0 0 0.3 0 0 0 0 0.3 0 0 0 0 0.3 0 0 0 1 0"/>
<feBlend mode="normal" in2="effect2_innerShadow_102_122" result="effect3_innerShadow_102_122"/>
</filter>
<linearGradient id="paint0_linear_102_122" x1="13.75" y1="30" x2="36.25" y2="30" gradientUnits="userSpaceOnUse">
<stop stop-color="#BDDCEA"/>
<stop offset="0.215" stop-color="#BDC7DE"/>
<stop offset="0.44" stop-color="#EFC9D7"/>
<stop offset="0.63" stop-color="#F4CDB7"/>
<stop offset="0.81" stop-color="#F2F1CA"/>
<stop offset="1" stop-color="#C8E1C8"/>
</linearGradient>
<linearGradient id="paint1_linear_102_122" x1="71.6245" y1="29.4404" x2="91.4896" y2="29.4404" gradientUnits="userSpaceOnUse">
<stop stop-color="#BDDCEA"/>
<stop offset="0.215" stop-color="#BDC7DE"/>
<stop offset="0.44" stop-color="#EFC9D7"/>
<stop offset="0.63" stop-color="#F4CDB7"/>
<stop offset="0.81" stop-color="#F2F1CA"/>
<stop offset="1" stop-color="#C8E1C8"/>
</linearGradient>
<clipPath id="clip0_102_122">
<rect width="24" height="24" fill="white" transform="translate(13 18)"/>
</clipPath>
</defs>
</svg>
